<svg xmlns="http://www.w3.org/2000/svg" xmlns:xlink="http://www.w3.org/1999/xlink" version="1.1" x="0px" y="0px" viewBox="0 0 100.0 100"><path d="M1130,752 c23,2,43,6,80,15 c-4,20,-28,54,-62,76 c-1,98,-44,89,-19,151 c28,70,-1,144,-35,154 c-31,9,-18,-34,-36,-74 c-7,-18,-24,-19,-27,5 c-9,59,-45,121,-71,121 c-37,0,-15,-63,-23,-125 c-1,-16,-14,-19,-20,-5 c-20,43,-87,115,-114,105 c-34,-13,7,-75,22,-134 c5,-19,-5,-20,-18,-9 c-29,28,-104,58,-124,42 c-40,-36,103,-146,103,-199 c0,-240,-171,-193,-412,-193 c-264,0,-383,-205,-383,-408 c0,-31,4,-63,10,-95 c43,42,77,74,106,96 c0,-53,12,-106,32,-158 c92,94,203,126,322,112 l-198,-88 c132,-116,248,-141,331,-141 c332,0,482,195,482,418 c0,72,-1,116,-1,153 c10,-9,21,-13,35,-13 c32,0,60,27,60,60 c0,40,-48,82,-40,134 Z M1028,793 c-23,0,-43,22,-43,44 c0,24,20,43,43,43 c24,0,44,-19,44,-43 c0,-22,-20,-44,-44,-44 Z M1028,793 " fill="#ffffff" stroke="none" stroke-dasharray="none" stroke-linecap="inherit" stroke-linejoin="inherit" stroke-width="1" transform="matrix(0.0416666666667,0.0,0.0,-0.0416666666667,25.0,75.0)"></path></svg>