<?xml version="1.0" encoding="UTF-8" standalone="no"?><!DOCTYPE svg PUBLIC "-//W3C//DTD SVG 1.1//EN" "http://www.w3.org/Graphics/SVG/1.1/DTD/svg11.dtd"><svg width="100px" height="100px" viewBox="0 0 100 100" version="1.1" xmlns="http://www.w3.org/2000/svg" xmlns:xlink="http://www.w3.org/1999/xlink" xml:space="preserve" xmlns:serif="http://www.serif.com/" style="fill-rule:evenodd;clip-rule:evenodd;stroke-linejoin:round;stroke-miterlimit:2;"><rect id="Artboard1" x="0" y="0" width="100" height="100" style="fill:none;"/><path d="M71.718,43.766c0.944,-0.083 1.764,-0.246 3.282,-0.616c-0.164,-0.82 -1.149,-2.214 -2.544,-3.117c-0.04,-4.019 -1.804,-3.65 -0.778,-6.194c1.147,-2.871 -0.042,-5.906 -1.437,-6.316c-1.27,-0.369 -0.738,1.394 -1.476,3.035c-0.287,0.738 -0.985,0.78 -1.108,-0.205c-0.369,-2.42 -1.845,-4.963 -2.912,-4.963c-1.518,0 -0.615,2.584 -0.943,5.127c-0.041,0.656 -0.575,0.779 -0.821,0.205c-0.82,-1.764 -3.568,-4.717 -4.676,-4.306c-1.393,0.532 0.288,3.076 0.903,5.496c0.205,0.779 -0.205,0.82 -0.738,0.369c-1.189,-1.149 -4.266,-2.38 -5.087,-1.723c-1.64,1.477 4.225,5.988 4.225,8.163c0,9.844 -7.013,7.915 -16.899,7.915c-10.828,0 -15.709,8.409 -15.709,16.735c0,1.272 0.164,2.584 0.41,3.897c1.764,-1.722 3.158,-3.035 4.348,-3.937c0,2.173 0.492,4.347 1.313,6.48c3.773,-3.856 8.326,-5.168 13.207,-4.594l-8.122,3.61c5.415,4.757 10.173,5.783 13.577,5.783c13.618,0 19.77,-7.998 19.77,-17.145c0,-2.953 -0.04,-4.758 -0.04,-6.276c0.409,0.369 0.861,0.534 1.435,0.534c1.312,0 2.461,-1.108 2.461,-2.461c0,-1.641 -1.969,-3.364 -1.641,-5.496Zm-4.184,-1.683c-0.943,0 -1.763,-0.901 -1.763,-1.804c0,-0.984 0.82,-1.764 1.763,-1.764c0.985,0 1.806,0.78 1.806,1.764c0,0.903 -0.821,1.804 -1.806,1.804Z" style="fill:#fff;fill-rule:nonzero;"/></svg>