<svg xmlns="http://www.w3.org/2000/svg" xmlns:xlink="http://www.w3.org/1999/xlink" version="1.1" width="100px" height="100px" viewBox="0 0 100 100"><path d="M725,74 c-7,-79,3,-74,28,-74 l39,0 c24,0,27,-2,40,73 l58,327 l-138,0 Z M1099,563 l-152,0 l67,-490 c10,-73,23,-73,48,-73 l40,0 c27,0,28,-4,24,74 Z M309,386 c210,0,206,296,0,296 c-204,0,-213,-296,0,-296 Z M1338,1033 c-21,0,-38,17,-38,38 c0,21,17,37,38,37 c21,0,37,-16,37,-37 c0,-21,-16,-38,-37,-38 Z M725,50 c-4,-50,-4,-50,28,-50 l39,0 c32,0,32,0,40,50 l58,350 l-138,0 Z M272,325 l-147,13 l51,-288 c9,-50,4,-50,36,-50 l41,0 c27,0,31,0,29,50 Z M1099,563 l-152,0 l67,-513 c5,-50,5,-50,38,-50 l50,0 c27,0,27,0,24,50 Z M887,450 c223,1,273,106,320,212 c87,180,87,180,273,180 c112,0,120,115,120,115 l-258,256 c42,41,67,63,42,129 c-189,-141,-237,-142,-507,-142 l-829,0 c-88,0,-167,-41,-167,-161 c0,-166,2,-291,-78,-397 c-95,0,-147,-43,-170,-140 c260,0,317,143,317,537 c0,42,50,42,50,0 l0,-287 c0,-191,-100,-231,-100,-318 l0,-384 c0,-50,-2,-50,30,-50 l44,0 c32,0,33,0,40,50 l41,312 c255,180,509,87,832,88 Z M887,450 " fill="#ffffff" stroke="none" stroke-dasharray="none" stroke-linecap="inherit" stroke-linejoin="inherit" stroke-width="1" transform="matrix(0.0416666666667,0.0,0.0,-0.0416666666667,25.0,75.0)"></path></svg>
