<?xml version="1.0" encoding="UTF-8" standalone="no"?><!DOCTYPE svg PUBLIC "-//W3C//DTD SVG 1.1//EN" "http://www.w3.org/Graphics/SVG/1.1/DTD/svg11.dtd"><svg width="100%" height="100%" viewBox="0 0 100 100" version="1.1" xmlns="http://www.w3.org/2000/svg" xmlns:xlink="http://www.w3.org/1999/xlink" xml:space="preserve" xmlns:serif="http://www.serif.com/" style="fill-rule:evenodd;clip-rule:evenodd;stroke-linejoin:round;stroke-miterlimit:2;"><path d="M93.653,47.75c-1.8,-1.8 -15.751,-11.25 -32.851,-11.25c-1.911,0 -3.77,0.113 -5.591,0.293l-15.11,-8.394c0,4.056 1.142,8.111 2.139,10.88c-8.737,2.345 -16.289,5.321 -22.84,5.321l-14.4,-9c0,7.2 3.6,14.4 3.6,14.4c0,0 -3.6,7.2 -3.6,14.4l14.4,-9c6.551,0 14.103,2.977 22.84,5.321c-0.997,2.769 -2.139,6.824 -2.139,10.88l15.109,-8.394c1.822,0.179 3.681,0.293 5.592,0.293c17.1,0 31.051,-9.45 32.851,-11.25c1.8,-1.8 1.793,-2.707 0,-4.5Zm-11.701,2.25c-1.243,0 -2.25,-1.007 -2.25,-2.25c0,-1.243 1.007,-2.25 2.25,-2.25c1.243,0 2.25,1.007 2.25,2.25c0,1.242 -1.007,2.25 -2.25,2.25Z" style="fill:#fff;fill-rule:nonzero;"/></svg>