<svg xmlns="http://www.w3.org/2000/svg" xmlns:xlink="http://www.w3.org/1999/xlink" version="1.1" x="0px" y="0px" viewBox="0 0 33 33" enable-background="new 0 0 33 33" xml:space="preserve"><path d="M32.17,11.203c-1.852-5.396-10.471-7.702-16.412-6.802c-0.284,0.031-6.98,0.81-8.704,5.196  c-0.846,2.153-0.472,3.573-0.224,4.514c0.056,0.211,0.132,0.501,0.152,0.52c-0.004,0.005-0.107,0.13-0.598,0.325  c-0.365,0.146-0.746,0.289-1.128,0.433c-2.172,0.817-4.224,1.59-4.673,3.131c-0.059,0.202-0.084,0.462-0.063,0.749L0.5,22.035  c0,0.71,0.196,1.731,1.129,2.562c1.885,1.684,6.907,4.192,12.938,4.192c4.124,0,8.718-1.172,13.104-4.584  c3.147-2.446,4.771-4.986,4.828-7.57v-3.402C32.504,12.478,32.373,11.794,32.17,11.203z M26.418,19.237  c-3.541,2.755-7.522,4.15-11.832,4.15c-6.161,0-11.057-2.868-11.877-3.958c-0.139-0.186-0.175-0.305-0.164-0.341  c0.163-0.56,2.288-1.358,3.431-1.789c0.395-0.147,0.789-0.297,1.167-0.446c2.104-0.844,1.975-2.074,1.662-3.263  c-0.212-0.805-0.452-1.715,0.15-3.247c1.272-3.236,6.968-3.905,7.067-3.917c0.819-0.124,1.673-0.187,2.537-0.187  c5.467,0,10.598,2.472,11.681,5.625C31.224,14.736,28.705,17.458,26.418,19.237z" fill="#ffffff"></path><path d="M18.558,7.844c-0.785,0-1.558,0.058-2.283,0.167l-0.123,0.016c-0.946,0.104-4.935,0.944-5.704,2.904  c-0.392,0.996-0.296,1.479-0.093,2.252c0.66,2.503-0.197,4.19-2.625,5.162l-0.333,0.131c-0.391,0.15-0.651,0.526-0.654,0.945  c-0.003,0.42,0.251,0.799,0.641,0.954c1.601,0.643,4.149,1.409,7.202,1.409c3.944,0,7.594-1.283,10.847-3.813  c2.649-2.062,3.817-4.044,3.288-5.585C27.861,9.883,23.302,7.844,18.558,7.844z M24.968,14.09c-0.297,0.979-1.577,1.453-2.86,1.065  c-1.283-0.389-2.084-1.495-1.786-2.476c0.297-0.976,1.578-1.453,2.861-1.065C24.466,12.005,25.266,13.114,24.968,14.09z" fill="#ffffff" ></path></svg>