<svg xmlns="http://www.w3.org/2000/svg" xmlns:xlink="http://www.w3.org/1999/xlink" version="1.1" x="0px" y="0px" viewBox="0 0 100 100" enable-background="new 0 0 100 100" xml:space="preserve"><path d="M65.019,31.427l-0.787-1.104C61.342,26.28,59,20.025,59,16.354V11.75h2.25V9.5c0-2.485-2.015-4.5-4.5-4.5h-13.5  c-2.485,0-4.5,2.015-4.5,4.5v2.25H41v4.604c0,3.671-2.342,9.926-5.231,13.969l-0.787,1.104C32.092,35.47,29.75,42.779,29.75,47.75  V86c0,4.971,4.03,9,9,9h22.5c4.971,0,9-4.029,9-9V47.75C70.25,42.779,67.908,35.47,65.019,31.427z M56.75,34.25  c0,7.455-6.045,13.5-13.5,13.5h-4.5V86c-2.485,0-4.5-2.015-4.5-4.5V46.854h0.033c0.263-4.029,2.187-9.769,4.36-12.812l0.79-1.106  c3.458-4.84,6.067-11.969,6.067-16.582V11.75h2.25c0,2.485,2.015,4.5,4.5,4.5h2.25v0.104c0,4.323,2.293,10.855,5.427,15.646h-3.379  C56.671,32.734,56.75,33.482,56.75,34.25z" fill="#ffffff"></path></svg>