<svg xmlns="http://www.w3.org/2000/svg" xmlns:xlink="http://www.w3.org/1999/xlink" version="1.1" x="0px" y="0px" viewBox="0 0 100 100"><path d="M960,1 l97,229 c111,-102,232,-130,354,-130 l77,111 l-71,86 c204,530,-537,903,-1036,903 c-326,0,-569,-190,-569,-460 c0,-272,139,-493,225,-739 c6,-17,117,-15,117,0 l0,275 c212,-54,442,-54,689,0 l0,-275 c0,-26,110,-21,117,0 Z M400,0 l2,195 c-65,2,-125,11,-190,20 l87,-215 c6,-14,101,-13,101,0 Z M702,0 l97,223 c-65,-11,-135,-21,-200,-25 l1,-198 c0,-17,97,-12,102,0 Z M-30,1159 c-27,27,-63,41,-98,41 c-35,0,-71,-14,-97,-41 c-54,-53,-54,-141,0,-196 c53,-54,141,-54,195,0 l-54,51 c-25,-25,-68,-25,-94,0 c-26,26,-26,69,0,95 c26,25,69,25,94,0 Z M1298,323 c-26,0,-49,23,-49,50 c0,27,23,49,49,49 c27,0,51,-22,51,-49 c0,-27,-24,-50,-51,-50 Z M1575,504 c7,64,-68,191,-191,191 l-238,0 l0,-191 Z M1575,504 " fill="#ffffff" stroke="none" stroke-dasharray="none" stroke-linecap="inherit" stroke-linejoin="inherit" stroke-width="1" transform="matrix(0.0416666666667,0.0,0.0,-0.0416666666667,25.0,75.0)"></path></svg>
